# xmcd
#
# Track frame offsets:
#	150
#	18000
#	34864
#	52856
#	72561
#	88230
#	103855
#	121688
#	140498
#	156727
#	173275
#	191831
#	209208
#	226591
#	244026
#
# Disc length: 3459 seconds
#
# Revision: 1
# Processed by: cddbd v1.5.2PL0 Copyright (c) Steve Scherf et al.
# Submitted via: EasyCDDAExtractor 15.3.0.1
#
DISCID=cd0d810f
DTITLE=Pablo Alboran
DYEAR=2011
DGENRE=Latin
TTITLE0=Solamente Tu
TTITLE1=Miedo
TTITLE2=Vuelve Conmigo
TTITLE3=Caramelo
TTITLE4=Volver A Empezar
TTITLE5=Me Cole Por La Puerta De Atras
TTITLE6=Desencuentro
TTITLE7=Perdoname
TTITLE8=Ladrona De Mi Piel
TTITLE9=Loco De Atar
TTITLE10=Solamente Tu (Version Original) (Bonus Track)
TTITLE11=Te He Echado De Menos (Bonus Track)
TTITLE12=No Te Olvidare (Bonus Track)
TTITLE13=Perdoname (Con Carminho) (Bonus Track)
TTITLE14=Cuando Te Alejas (Bonus Track)
EXTD=
EXTT0=
EXTT1=
EXTT2=
EXTT3=
EXTT4=
EXTT5=
EXTT6=
EXTT7=
EXTT8=
EXTT9=
EXTT10=
EXTT11=
EXTT12=
EXTT13=
EXTT14=
PLAYORDER=
